<?xml version="1.0" encoding="UTF-8"?>
<svg id="Layer_2" data-name="Layer 2" xmlns="http://www.w3.org/2000/svg" viewBox="0 0 29.78 31.53">
  <defs>
    <style>
      .cls-1 {
        fill: none;
        stroke: #0b0827;
        stroke-width: 2px;
      }
    </style>
  </defs>
  <g id="Layer_1-2" data-name="Layer 1">
    <g id="settings-svgrepo-com-2">
      <circle id="Ellipse_117" data-name="Ellipse 117" class="cls-1" cx="14.89" cy="15.76" r="4.42"/>
      <path id="Path_53" data-name="Path 53" class="cls-1" d="M17.49,1.26c-.85-.23-1.73-.31-2.6-.22-.87-.08-1.75,0-2.6.22-.72.3-1.3.87-1.6,1.6-.15.41-.22.84-.21,1.27-.02,1.29-1.07,2.32-2.36,2.3-.39,0-.77-.11-1.12-.3-.37-.22-.78-.38-1.21-.45-.77-.1-1.56.11-2.18.59-.62.62-1.13,1.34-1.5,2.14-.5.72-.88,1.52-1.1,2.36-.1.77.11,1.56.58,2.18.28.33.62.61,1,.82,1.11.65,1.47,2.08.82,3.19-.2.34-.48.62-.82.82-.38.21-.72.49-1,.82-.48.62-.69,1.4-.58,2.18.22.85.6,1.65,1.1,2.36.37.8.88,1.52,1.5,2.14.62.48,1.4.69,2.18.58.43-.08.83-.23,1.21-.45,1.12-.63,2.54-.24,3.17.88.19.34.3.73.3,1.12,0,.43.07.86.21,1.27.3.72.87,1.3,1.6,1.59.85.23,1.73.3,2.6.22.87.08,1.75,0,2.6-.22.72-.3,1.3-.87,1.59-1.59.15-.41.22-.84.21-1.27.02-1.29,1.07-2.32,2.36-2.3.39,0,.77.11,1.12.3.37.22.78.38,1.21.45.77.1,1.56-.11,2.18-.58.62-.62,1.13-1.34,1.5-2.14.51-.72.88-1.52,1.11-2.36.1-.77-.11-1.56-.58-2.18-.28-.33-.62-.61-1-.82-1.11-.65-1.47-2.08-.82-3.19.2-.34.48-.62.82-.82.38-.21.72-.49,1-.82.48-.62.69-1.4.58-2.18-.22-.85-.6-1.65-1.11-2.36-.37-.8-.87-1.52-1.5-2.14-.62-.48-1.4-.69-2.18-.58-.43.08-.83.23-1.21.45-1.12.63-2.54.24-3.17-.88-.19-.34-.3-.73-.3-1.12,0-.43-.07-.86-.21-1.27-.3-.72-.87-1.3-1.6-1.6Z"/>
    </g>
  </g>
</svg>