<?xml version="1.0" standalone="no"?>
<!DOCTYPE svg PUBLIC "-//W3C//DTD SVG 20010904//EN"
 "http://www.w3.org/TR/2001/REC-SVG-20010904/DTD/svg10.dtd">
<svg version="1.0" xmlns="http://www.w3.org/2000/svg"
 width="128.000000pt" height="128.000000pt" viewBox="0 0 128.000000 128.000000"
 preserveAspectRatio="xMidYMid meet">

<g transform="translate(0.000000,128.000000) scale(0.100000,-0.100000)"
fill="#000000" stroke="none">
<path d="M501 1265 c-284 -62 -501 -332 -501 -625 0 -348 292 -640 640 -640
348 0 640 292 640 640 0 404 -382 711 -779 625z m248 -204 c82 -25 138 -60
193 -119 164 -175 155 -440 -20 -604 -175 -164 -440 -155 -604 20 -164 175
-155 440 20 604 114 106 268 144 411 99z"/>
</g>
</svg>
