<?xml version="1.0" encoding="UTF-8"?>
<svg id="Layer_2" data-name="Layer 2" xmlns="http://www.w3.org/2000/svg" viewBox="0 0 12.99 12.3">
  <defs>
    <style>
      .cls-1 {
        fill-rule: evenodd;
      }
    </style>
  </defs>
  <g id="Layer_1-2" data-name="Layer 1">
    <path id="edit-2-svgrepo-com" class="cls-1" d="M9.75,1.68c.42-.44,1.12-.46,1.56-.04.44.42.46,1.12.04,1.56-.03.03-.05.05-.08.08l-7.6,7.25-1.96.26.8-2.25L9.75,1.67h0ZM12.3.77c-.94-.99-2.51-1.03-3.5-.09L1.45,7.66c-.08.07-.14.16-.17.26L.04,11.38c-.13.36.06.75.41.88.1.04.21.05.32.03l3.3-.43c.14-.02.28-.08.38-.18l7.76-7.41c.99-.94,1.03-2.51.08-3.5h0ZM7.55,10.93c-.38,0-.69.31-.69.69s.31.69.69.69h4.12c.38,0,.69-.31.69-.69s-.31-.69-.69-.69h-4.12Z"/>
  </g>
</svg>