<?xml version="1.0" encoding="UTF-8"?>
<svg id="Layer_2" data-name="Layer 2" xmlns="http://www.w3.org/2000/svg" viewBox="0 0 20.27 21.17">
  <defs>
    <style>
      .cls-1 {
        fill: #fff;
      }
    </style>
  </defs>
  <g id="Layer_1-2" data-name="Layer 1">
    <g id="Group_217" data-name="Group 217">
      <path id="Path_9" data-name="Path 9" class="cls-1" d="M9.28.32L.44,8.08c-.53.47-.59,1.28-.12,1.82.24.28.6.44.97.44h17.69c.71,0,1.29-.58,1.29-1.29,0-.37-.16-.72-.44-.97L10.98.32c-.49-.43-1.21-.43-1.7,0"/>
      <path id="Path_10" data-name="Path 10" class="cls-1" d="M15,5.42H5.27c-1.67,0-3.02,1.35-3.02,3.02v9.72c0,1.67,1.35,3.02,3.02,3.02h2.27v-4.65c.03-1.43,1.21-2.57,2.64-2.54,1.39.03,2.51,1.15,2.54,2.54v4.65h2.27c1.67,0,3.02-1.35,3.02-3.02v-9.72c0-1.67-1.35-3.02-3.02-3.02"/>
    </g>
  </g>
</svg>