<?xml version="1.0" encoding="UTF-8"?>
<svg id="Layer_2" data-name="Layer 2" xmlns="http://www.w3.org/2000/svg" viewBox="0 0 19.4 22.18">
  <defs>
    <style>
      .cls-1 {
        fill: #fff;
      }
    </style>
  </defs>
  <g id="Layer_1-2" data-name="Layer 1">
    <g id="bell-svgrepo-com-2">
      <path id="Path_57" data-name="Path 57" class="cls-1" d="M18.02,15.25c-.72-.09-1.29-.66-1.39-1.39v-6.93C16.63,3.1,13.53,0,9.7,0,5.87,0,2.77,3.1,2.77,6.93v6.93c-.1.72-.67,1.29-1.39,1.39-.77,0-1.39.62-1.39,1.39s.62,1.39,1.39,1.39h16.63c.77,0,1.39-.62,1.39-1.39s-.62-1.39-1.39-1.39h0Z"/>
      <path id="Path_58" data-name="Path 58" class="cls-1" d="M9.7,22.18c1.53,0,2.77-1.24,2.77-2.77h-5.54c0,1.53,1.24,2.77,2.77,2.77Z"/>
    </g>
  </g>
</svg>