<?xml version="1.0" encoding="UTF-8"?>
<svg id="Layer_2" data-name="Layer 2" xmlns="http://www.w3.org/2000/svg" viewBox="0 0 31.39 20">
  <defs>
    <style>
      .cls-1 {
        fill: #fff;
      }
    </style>
  </defs>
  <g id="Layer_1-2" data-name="Layer 1">
    <path id="activity-svgrepo-com" class="cls-1" d="M31.39,10c0,.79-.64,1.43-1.43,1.43h-7.14c-.48,0-.92-.24-1.19-.64l-1.24-1.86-3.36,10.09c-.19.58-.74.98-1.35.98h-.05c-.63-.02-1.18-.46-1.33-1.08l-3.1-12.39-1.31,3.92c-.19.58-.74.98-1.35.98H1.39C.6,11.4-.02,10.75,0,9.96c.02-.76.63-1.37,1.39-1.39h6.11L10.04.97c.25-.75,1.06-1.15,1.81-.9.46.15.81.53.93,1l3.1,12.38,2.73-8.2c.25-.75,1.06-1.15,1.81-.9.3.1.56.3.73.56l2.43,3.65h6.38c.79,0,1.43.64,1.43,1.43Z"/>
  </g>
</svg>